<?xml version="1.0" encoding="UTF-8"?>
<svg version="1.2" baseProfile="tiny" xmlns="http://www.w3.org/2000/svg"
 width="588" height="588" viewBox="217 208 588 588">
<rect x="217" y="208" width="588" height="588" fill="#0D1B2A"/>
<g transform="translate(0,1024) scale(0.1,-0.1)" fill="#F08C2E" stroke="none">
<path d="M4693 7979 c-11 -4 -54 -28 -95 -52 -40 -24 -262 -157 -493 -295
-231 -137 -432 -263 -447 -279 -58 -61 -88 -175 -88 -340 0 -91 8 -115 33 -95
11 9 1070 647 1122 676 11 7 91 54 177 105 l158 94 -68 39 c-145 86 -248 145
-262 150 -8 3 -25 2 -37 -3z M5390 7923 c-52 -31 -185 -111 -295 -178 -110
-67 -387 -233 -615 -370 -228 -136 -526 -315 -662 -397 l-248 -150 0 -344 c0
-189 2 -344 4 -344 6 0 1352 806 1771 1060 220 134 445 266 500 295 123 63
197 80 307 72 48 -4 78 -3 72 2 -26 25 -702 411 -719 411 -11 -1 -63 -26 -115
-57z M6024 7496 c-63 -15 -151 -53 -193 -85 -24 -18 -24 -18 35 -51 33 -19
118 -68 189 -111 72 -42 265 -157 430 -254 165 -98 352 -209 415 -246 63 -37
187 -110 274 -163 87 -53 164 -96 169 -96 13 0 3 370 -11 397 -6 10 -120 84
-254 163 -134 79 -322 191 -418 248 -206 123 -285 164 -360 186 -78 23 -203
28 -276 12z M5480 7207 c-140 -83 -255 -156 -255 -162 0 -5 50 -40 110 -76
146 -88 937 -559 1245 -741 746 -443 960 -572 993 -599 20 -17 59 -65 87 -107
l50 -76 0 365 c0 366 0 366 -22 386 -13 12 -102 67 -198 124 -96 56 -341 201
-545 322 -203 121 -383 228 -400 237 -59 33 -483 285 -643 382 -90 54 -165 98
-165 98 -1 0 -117 -69 -257 -153z M3245 7139 c-165 -99 -310 -191 -322 -205
-23 -25 -23 -25 -23 -1128 0 -1038 1 -1104 18 -1118 9 -8 143 -90 297 -182
l280 -167 5 1428 c5 1428 5 1428 27 1487 13 33 22 61 20 62 -1 1 -137 -79
-302 -177z M4910 6578 c0 -2 9 -32 20 -66 13 -41 20 -92 20 -141 0 -147 -52
-285 -180 -482 -161 -248 -202 -425 -141 -615 10 -32 15 -60 10 -62 -20 -8
-73 48 -102 107 -29 59 -32 73 -32 160 0 53 4 107 9 121 9 25 9 25 -14 5 -34
-31 -126 -174 -165 -257 -19 -41 -46 -115 -62 -164 -25 -82 -27 -103 -27 -259
-1 -148 2 -180 22 -248 74 -256 255 -448 502 -532 40 -14 96 -28 124 -31 l51
-7 -60 45 c-143 106 -225 253 -225 404 0 102 31 166 160 329 90 115 126 187
150 305 22 110 39 163 76 231 26 47 44 56 44 21 0 -27 62 -141 121 -223 84
-116 103 -166 103 -274 0 -61 -6 -109 -18 -147 -15 -47 -16 -61 -6 -73 18 -22
70 -33 103 -22 35 12 82 80 98 141 6 25 15 46 19 46 13 0 49 -105 62 -180 21
-123 -15 -270 -95 -391 -43 -65 -116 -139 -177 -180 -43 -29 -43 -29 -13 -29
71 0 248 70 338 134 63 45 169 149 206 202 112 162 181 423 164 619 -24 287
-162 595 -363 809 -24 25 -46 46 -50 46 -4 0 -3 -35 2 -78 20 -172 -60 -350
-148 -328 -15 4 -33 20 -42 38 -15 29 -15 44 -4 150 16 144 8 252 -26 358 -56
177 -185 346 -349 457 -60 40 -105 66 -105 61z M2675 6364 c-77 -46 -146 -92
-153 -102 -10 -13 -12 -134 -10 -597 3 -544 4 -583 22 -625 30 -71 101 -172
144 -207 45 -37 138 -93 152 -93 6 0 10 318 10 855 0 678 -3 855 -12 854 -7 0
-76 -38 -153 -85z M6738 4653 c-3 -1398 -3 -1398 -25 -1460 -13 -34 -23 -65
-23 -69 0 -3 12 2 28 12 15 10 142 87 282 172 140 84 265 162 277 172 12 11
25 30 28 42 3 13 4 513 3 1112 l-3 1088 -278 164 c-154 90 -281 164 -283 164
-2 0 -5 -629 -6 -1397z M7370 4802 c0 -478 3 -871 6 -874 6 -7 288 164 322
195 22 20 22 20 22 561 0 595 -2 616 -61 726 -44 83 -119 162 -203 215 -40 25
-76 45 -79 45 -4 0 -7 -391 -7 -868z M2510 4586 c0 -189 3 -352 6 -361 4 -8
61 -48 128 -87 503 -295 1774 -1047 1832 -1084 18 -12 26 -10 75 20 29 18 142
85 249 149 107 64 203 122 213 129 16 12 -2 25 -170 123 -103 60 -325 190
-493 289 -168 99 -357 210 -420 246 -157 92 -767 449 -1035 608 -121 71 -240
147 -263 167 -24 21 -60 62 -79 91 -20 30 -37 54 -39 54 -2 0 -4 -155 -4 -344z
M6305 4053 c-198 -119 -706 -423 -1130 -676 -423 -253 -780 -466 -793 -474
-62 -38 -158 -65 -239 -66 -46 -1 -83 -5 -83 -9 0 -7 25 -23 389 -240 193
-115 270 -157 285 -152 12 3 111 60 221 126 110 67 380 229 600 361 220 132
562 338 760 457 l360 216 3 337 c1 185 -1 337 -5 336 -5 0 -170 -97 -368 -216z
M2890 3744 c0 -124 4 -187 13 -204 8 -16 83 -68 212 -146 394 -237 691 -412
750 -441 112 -55 232 -73 343 -49 71 15 222 79 222 94 0 4 -109 72 -242 151
-134 79 -385 228 -558 331 -173 103 -398 237 -500 297 -102 60 -197 117 -212
127 -28 18 -28 18 -28 -160z M6515 3428 c-168 -102 -688 -413 -1074 -642 -140
-83 -256 -156 -258 -161 -1 -6 16 -21 40 -34 23 -14 91 -53 151 -88 61 -35
121 -63 134 -63 21 0 232 124 832 489 102 62 202 129 223 149 44 42 74 95 94
167 16 60 30 275 17 275 -5 0 -76 -42 -159 -92z"/>
</g>
</svg>
